<svg width="474" height="71" viewBox="0 0 474 71" fill="none" xmlns="http://www.w3.org/2000/svg">
<path d="M9.72813 70V72H11.7281V70H9.72813ZM0.728133 70H-1.27187V72H0.728133V70ZM0.728133 1.75V-0.25H-1.27187V1.75H0.728133ZM9.72813 1.75H11.7281V-0.25H9.72813V1.75ZM9.72813 68H0.728133V72H9.72813V68ZM2.72813 70V1.75H-1.27187V70H2.72813ZM0.728133 3.75H9.72813V-0.25H0.728133V3.75ZM7.72813 1.75V70H11.7281V1.75H7.72813ZM88.2813 70V72H90.2813V70H88.2813ZM79.2344 70L77.56 71.0939L78.152 72H79.2344V70ZM44.875 17.4062L46.5494 16.3124L42.875 10.6881V17.4062H44.875ZM44.875 70V72H46.875V70H44.875ZM35.8281 70H33.8281V72H35.8281V70ZM35.8281 1.75V-0.25H33.8281V1.75H35.8281ZM44.875 1.75L46.5502 0.657464L45.9584 -0.25H44.875V1.75ZM79.3281 54.5781L77.6529 55.6707L81.3281 61.306V54.5781H79.3281ZM79.3281 1.75V-0.25H77.3281V1.75H79.3281ZM88.2813 1.75H90.2813V-0.25H88.2813V1.75ZM88.2813 68H79.2344V72H88.2813V68ZM80.9087 68.9061L46.5494 16.3124L43.2006 18.5001L77.56 71.0939L80.9087 68.9061ZM42.875 17.4062V70H46.875V17.4062H42.875ZM44.875 68H35.8281V72H44.875V68ZM37.8281 70V1.75H33.8281V70H37.8281ZM35.8281 3.75H44.875V-0.25H35.8281V3.75ZM43.1998 2.84254L77.6529 55.6707L81.0034 53.4856L46.5502 0.657464L43.1998 2.84254ZM81.3281 54.5781V1.75H77.3281V54.5781H81.3281ZM79.3281 3.75H88.2813V-0.25H79.3281V3.75ZM86.2813 1.75V70H90.2813V1.75H86.2813ZM159.616 9.15625V11.1562H161.616V9.15625H159.616ZM137.678 9.15625V7.15625H135.678V9.15625H137.678ZM137.678 70V72H139.678V70H137.678ZM128.725 70H126.725V72H128.725V70ZM128.725 9.15625H130.725V7.15625H128.725V9.15625ZM106.834 9.15625H104.834V11.1562H106.834V9.15625ZM106.834 1.75V-0.25H104.834V1.75H106.834ZM159.616 1.75H161.616V-0.25H159.616V1.75ZM159.616 7.15625H137.678V11.1562H159.616V7.15625ZM135.678 9.15625V70H139.678V9.15625H135.678ZM137.678 68H128.725V72H137.678V68ZM130.725 70V9.15625H126.725V70H130.725ZM128.725 7.15625H106.834V11.1562H128.725V7.15625ZM108.834 9.15625V1.75H104.834V9.15625H108.834ZM106.834 3.75H159.616V-0.25L106.834 -0.25V3.75ZM157.616 1.75V9.15625H161.616V1.75H157.616ZM217.919 38.4531V40.4531H219.919V38.4531H217.919ZM188.341 38.4531V36.4531H186.341V38.4531H188.341ZM188.341 62.6406H186.341V64.6406H188.341V62.6406ZM222.7 62.6406H224.7V60.6406H222.7V62.6406ZM222.7 70V72H224.7V70H222.7ZM179.341 70H177.341V72H179.341V70ZM179.341 1.75V-0.25H177.341V1.75H179.341ZM222.231 1.75H224.231V-0.25H222.231V1.75ZM222.231 9.15625V11.1562H224.231V9.15625H222.231ZM188.341 9.15625V7.15625H186.341V9.15625H188.341ZM188.341 31.0937H186.341V33.0937H188.341V31.0937ZM217.919 31.0937H219.919V29.0937H217.919V31.0937ZM217.919 36.4531H188.341V40.4531H217.919V36.4531ZM186.341 38.4531V62.6406H190.341V38.4531H186.341ZM188.341 64.6406H222.7V60.6406H188.341V64.6406ZM220.7 62.6406V70H224.7V62.6406H220.7ZM222.7 68H179.341V72H222.7V68ZM181.341 70V1.75H177.341V70H181.341ZM179.341 3.75H222.231V-0.25H179.341V3.75ZM220.231 1.75V9.15625H224.231V1.75H220.231ZM222.231 7.15625H188.341V11.1562H222.231V7.15625ZM186.341 9.15625V31.0937H190.341V9.15625H186.341ZM188.341 33.0937H217.919V29.0937H188.341V33.0937ZM215.919 31.0937V38.4531H219.919V31.0937H215.919ZM268.534 42.3906L270.297 41.4451L269.731 40.3906H268.534V42.3906ZM252.503 42.3906V40.3906H250.503V42.3906H252.503ZM252.503 70V72H254.503V70H252.503ZM243.456 70H241.456V72H243.456V70ZM243.456 1.75V-0.25H241.456V1.75L243.456 1.75ZM283.769 7L282.475 8.52503L282.48 8.52982L283.769 7ZM286.534 33.3906L284.921 32.2086L284.913 32.2191L286.534 33.3906ZM276.972 40.4687L276.259 38.6002L274.107 39.4216L275.222 41.4371L276.972 40.4687ZM293.003 69.4375H295.003V68.921L294.753 68.4691L293.003 69.4375ZM293.003 70V72H295.003V70H293.003ZM283.347 70L281.584 70.9455L282.15 72H283.347V70ZM252.503 35.0312H250.503V37.0312H252.503V35.0312ZM276.972 31.5625L275.659 30.054L275.65 30.0618L276.972 31.5625ZM277.159 12.5781L275.821 14.0647L275.831 14.0729L277.159 12.5781ZM266.284 9.15625L266.298 7.15625H266.284V9.15625ZM252.503 9.15625V7.15625H250.503V9.15625H252.503ZM268.534 40.3906H252.503V44.3906H268.534V40.3906ZM250.503 42.3906V70H254.503V42.3906H250.503ZM252.503 68H243.456V72H252.503V68ZM245.456 70V1.75L241.456 1.75V70H245.456ZM243.456 3.75H266.05V-0.25H243.456V3.75ZM266.05 3.75C273.46 3.75 278.837 5.43858 282.475 8.52502L285.063 5.47498C280.45 1.56142 274.015 -0.25 266.05 -0.25V3.75ZM282.48 8.52982C286.083 11.5634 288.003 16.035 288.003 22.2812H292.003C292.003 15.1525 289.767 9.43655 285.057 5.47018L282.48 8.52982ZM288.003 22.2812C288.003 26.1449 286.96 29.4252 284.921 32.2086L288.148 34.5727C290.733 31.0435 292.003 26.9176 292.003 22.2812H288.003ZM284.913 32.2191C282.888 35.021 280.035 37.1587 276.259 38.6002L277.685 42.3373C282.096 40.6538 285.618 38.0727 288.155 34.5622L284.913 32.2191ZM275.222 41.4371L291.253 70.4059L294.753 68.4691L278.722 39.5003L275.222 41.4371ZM291.003 69.4375V70H295.003V69.4375H291.003ZM293.003 68H283.347V72H293.003V68ZM285.109 69.0545L270.297 41.4451L266.772 43.3361L281.584 70.9455L285.109 69.0545ZM252.503 37.0312H266.331V33.0312H252.503V37.0312ZM266.331 37.0312C271.148 37.0312 275.211 35.7788 278.294 33.0632L275.65 30.0618C273.482 31.9712 270.452 33.0312 266.331 33.0312V37.0312ZM278.285 33.0709C281.425 30.3378 282.956 26.6695 282.956 22.2812H278.956C278.956 25.643 277.832 28.1622 275.659 30.0541L278.285 33.0709ZM282.956 22.2812C282.956 17.6425 281.548 13.8029 278.488 11.0833L275.831 14.0729C277.834 15.8533 278.956 18.4825 278.956 22.2812H282.956ZM278.497 11.0915C275.508 8.40093 271.336 7.18944 266.298 7.15629L266.271 11.1562C270.732 11.1856 273.811 12.2553 275.821 14.0647L278.497 11.0915ZM266.284 7.15625H252.503V11.1562H266.284V7.15625ZM250.503 9.15625V35.0312H254.503V9.15625H250.503ZM321.916 70V72H323.916V70H321.916ZM312.916 70H310.916V72H312.916V70ZM312.916 1.75V-0.25H310.916V1.75H312.916ZM321.916 1.75H323.916V-0.25H321.916V1.75ZM321.916 68H312.916V72H321.916V68ZM314.916 70V1.75H310.916V70H314.916ZM312.916 3.75H321.916V-0.25H312.916V3.75ZM319.916 1.75V70H323.916V1.75H319.916ZM397.141 55.6094L398.962 56.4344L398.964 56.4301L397.141 55.6094ZM358.844 67L357.767 68.6853L357.776 68.691L358.844 67ZM349.141 55.7031L347.327 56.5464L347.33 56.5533L347.334 56.5603L349.141 55.7031ZM345.625 38.6875H343.625V38.6972L343.625 38.7069L345.625 38.6875ZM358.703 4.84375L359.78 6.52899L359.783 6.52692L358.703 4.84375ZM387.484 4.79687L386.407 6.48211L386.415 6.48681L386.422 6.49145L387.484 4.79687ZM397.141 16.2812L395.315 17.0977L395.317 17.102L397.141 16.2812ZM386.687 15.0625L385.086 16.2607L385.09 16.2662L386.687 15.0625ZM359.594 15.0625L357.998 13.857L357.996 13.8588L359.594 15.0625ZM354.578 33.0625L352.578 33.0381L352.578 33.0503V33.0625H354.578ZM359.5 56.5937L357.884 57.7721L357.889 57.7784L357.893 57.7847L359.5 56.5937ZM386.641 56.9687L388.236 58.1744L388.241 58.1687L386.641 56.9687ZM391.562 38.7344L393.562 38.7581L393.562 38.7462V38.7344H391.562ZM398.516 38.0781C398.516 44.5435 397.428 50.0969 395.317 54.7886L398.964 56.4301C401.353 51.1219 402.516 44.9878 402.516 38.0781H398.516ZM395.319 54.7844C393.21 59.4414 390.264 62.9199 386.504 65.3127L388.652 68.6873C393.142 65.83 396.571 61.7148 398.962 56.4344L395.319 54.7844ZM386.504 65.3127C382.739 67.7087 378.309 68.9375 373.141 68.9375V72.9375C378.972 72.9375 384.167 71.5413 388.652 68.6873L386.504 65.3127ZM373.141 68.9375C368.107 68.9375 363.719 67.7134 359.912 65.309L357.776 68.691C362.281 71.5366 367.424 72.9375 373.141 72.9375V68.9375ZM359.921 65.3148C356.11 62.8794 353.115 59.4149 350.948 54.846L347.334 56.5603C349.791 61.7413 353.265 65.8081 357.767 68.6852L359.921 65.3148ZM350.954 54.8599C348.814 50.2562 347.685 44.8741 347.625 38.6681L343.625 38.7069C343.69 45.3759 344.905 51.3376 347.327 56.5464L350.954 54.8599ZM347.625 38.6875V33.7656H343.625V38.6875H347.625ZM347.625 33.7656C347.625 27.4352 348.725 21.9286 350.868 17.2009L347.225 15.5491C344.806 20.8839 343.625 26.9711 343.625 33.7656H347.625ZM350.868 17.2009C353.01 12.4784 355.988 8.95243 359.78 6.52898L357.626 3.15852C353.106 6.04757 349.647 10.2091 347.225 15.5491L350.868 17.2009ZM359.783 6.52692C363.623 4.06294 368.023 2.8125 373.047 2.8125V-1.1875C367.321 -1.1875 362.159 0.249563 357.623 3.16058L359.783 6.52692ZM373.047 2.8125C378.177 2.8125 382.607 4.05336 386.407 6.48211L388.561 3.11164C384.049 0.227889 378.854 -1.1875 373.047 -1.1875V2.8125ZM386.422 6.49145C390.236 8.88205 393.207 12.3851 395.315 17.0977L398.966 15.4648C396.574 10.1149 393.108 5.9617 388.547 3.1023L386.422 6.49145ZM395.317 17.102C397.429 21.7948 398.516 27.333 398.516 33.7656H402.516C402.516 26.8857 401.353 20.7676 398.964 15.4605L395.317 17.102ZM398.516 33.7656V38.0781H402.516V33.7656H398.516ZM393.562 33.6719C393.562 25.3499 391.898 18.6529 388.285 13.8588L385.09 16.2662C387.977 20.0971 389.562 25.8063 389.562 33.6719H393.562ZM388.289 13.8643C384.629 8.9723 379.464 6.54687 373.047 6.54687V10.5469C378.317 10.5469 382.246 12.4652 385.086 16.2607L388.289 13.8643ZM373.047 6.54687C366.765 6.54687 361.676 8.98725 357.998 13.857L361.19 16.268C364.073 12.4503 367.954 10.5469 373.047 10.5469V6.54687ZM357.996 13.8588C354.402 18.6285 352.675 25.0993 352.578 33.0381L356.578 33.0869C356.669 25.6507 358.286 20.1215 361.191 16.2662L357.996 13.8588ZM352.578 33.0625V38.0781H356.578V33.0625H352.578ZM352.578 38.0781C352.578 46.1775 354.27 52.8154 357.884 57.7721L361.116 55.4154C358.168 51.3721 356.578 45.6662 356.578 38.0781H352.578ZM357.893 57.7847C361.6 62.7854 366.755 65.2969 373.141 65.2969V61.2969C367.964 61.2969 364.025 59.3395 361.107 55.4028L357.893 57.7847ZM373.141 65.2969C379.508 65.2969 384.63 62.9481 388.236 58.1744L385.045 55.7631C382.277 59.4269 378.398 61.2969 373.141 61.2969V65.2969ZM388.241 58.1687C391.78 53.4495 393.466 46.8918 393.562 38.7581L389.563 38.7107C389.472 46.3894 387.876 51.988 385.041 55.7687L388.241 58.1687ZM393.562 38.7344V33.6719H389.562V38.7344H393.562ZM448.647 42.3906L450.409 41.4451L449.844 40.3906H448.647V42.3906ZM432.616 42.3906V40.3906H430.616V42.3906H432.616ZM432.616 70V72H434.616V70H432.616ZM423.569 70H421.569V72H423.569V70ZM423.569 1.75V-0.25H421.569V1.75H423.569ZM463.881 7L462.587 8.52503L462.593 8.52982L463.881 7ZM466.647 33.3906L465.034 32.2086L465.026 32.2191L466.647 33.3906ZM457.084 40.4687L456.371 38.6002L454.219 39.4216L455.334 41.4371L457.084 40.4687ZM473.116 69.4375H475.116V68.921L474.866 68.4691L473.116 69.4375ZM473.116 70V72H475.116V70H473.116ZM463.459 70L461.697 70.9455L462.263 72H463.459V70ZM432.616 35.0312H430.616V37.0312H432.616V35.0312ZM457.084 31.5625L455.771 30.054L455.762 30.0618L457.084 31.5625ZM457.272 12.5781L455.934 14.0647L455.943 14.0729L457.272 12.5781ZM446.397 9.15625L446.41 7.15625H446.397V9.15625ZM432.616 9.15625V7.15625H430.616V9.15625H432.616ZM448.647 40.3906H432.616V44.3906H448.647V40.3906ZM430.616 42.3906V70H434.616V42.3906H430.616ZM432.616 68H423.569V72H432.616V68ZM425.569 70V1.75H421.569V70H425.569ZM423.569 3.75H446.163V-0.25H423.569V3.75ZM446.163 3.75C453.573 3.75 458.95 5.43858 462.587 8.52502L465.175 5.47498C460.563 1.56142 454.127 -0.25 446.163 -0.25V3.75ZM462.593 8.52982C466.195 11.5634 468.116 16.035 468.116 22.2812H472.116C472.116 15.1525 469.88 9.43655 465.17 5.47018L462.593 8.52982ZM468.116 22.2812C468.116 26.1449 467.073 29.4252 465.034 32.2086L468.26 34.5727C470.846 31.0435 472.116 26.9176 472.116 22.2812H468.116ZM465.026 32.2191C463.001 35.021 460.148 37.1587 456.371 38.6002L457.798 42.3373C462.208 40.6538 465.731 38.0727 468.268 34.5622L465.026 32.2191ZM455.334 41.4371L471.366 70.4059L474.866 68.4691L458.834 39.5003L455.334 41.4371ZM471.116 69.4375V70H475.116V69.4375H471.116ZM473.116 68H463.459V72H473.116V68ZM465.222 69.0545L450.409 41.4451L446.884 43.3361L461.697 70.9455L465.222 69.0545ZM432.616 37.0312H446.444V33.0312H432.616V37.0312ZM446.444 37.0312C451.26 37.0312 455.324 35.7788 458.406 33.0632L455.762 30.0618C453.595 31.9712 450.565 33.0312 446.444 33.0312V37.0312ZM458.398 33.0709C461.537 30.3378 463.069 26.6695 463.069 22.2812H459.069C459.069 25.643 457.944 28.1622 455.771 30.0541L458.398 33.0709ZM463.069 22.2812C463.069 17.6425 461.66 13.8029 458.601 11.0833L455.943 14.0729C457.946 15.8533 459.069 18.4825 459.069 22.2812H463.069ZM458.61 11.0915C455.62 8.40093 451.449 7.18944 446.41 7.15629L446.384 11.1562C450.845 11.1856 453.924 12.2553 455.934 14.0647L458.61 11.0915ZM446.397 7.15625H432.616V11.1562H446.397V7.15625ZM430.616 9.15625V35.0312H434.616V9.15625H430.616Z" fill="#FBFCFD" fill-opacity="0.94"/>
</svg>
